<?xml version="1.0" encoding="utf-8"?>
<!-- Generator: Adobe Illustrator 24.1.0, SVG Export Plug-In . SVG Version: 6.00 Build 0)  -->
<svg version="1.1" id="Layer_1" xmlns="http://www.w3.org/2000/svg" xmlns:xlink="http://www.w3.org/1999/xlink" x="0px" y="0px"
	 viewBox="0 0 193.3 44.8" style="enable-background:new 0 0 193.3 44.8;" xml:space="preserve">
<style type="text/css">
	.st0{fill:none;stroke:#E6E6E6;stroke-width:5;stroke-miterlimit:10;}
	.st1{fill:#FFFFFF;}
	.st2{font-family:'Helvetica';}
	.st3{font-size:27px;}
	.st4{fill:none;stroke:#FFFFFF;stroke-miterlimit:10;}
	.st5{fill:#5ED4FB;}
	.st6{fill:#49D4FF;}
</style>
<g transform="translate(-26.78 -30.04)">
	<g transform="translate(29.28 32.54)">
		<circle class="st0" cx="19.9" cy="19.9" r="19.9"/>
		<circle class="st1" cx="31.1" cy="19.5" r="2.1"/>
		<g>
			<text transform="matrix(1 0 0 1 51.788 28.271)" class="st1 st2 st3">Sma</text>
			<text transform="matrix(1 0 0 1 51.788 28.271)" class="st4 st2 st3">Sma</text>
			<text transform="matrix(1 0 0 1 105.6841 28.271)" class="st1 st2 st3">r</text>
			<text transform="matrix(1 0 0 1 105.6841 28.271)" class="st4 st2 st3">r</text>
			<text transform="matrix(1 0 0 1 114.1353 28.271)" class="st1 st2 st3">tche</text>
			<text transform="matrix(1 0 0 1 114.1353 28.271)" class="st4 st2 st3">tche</text>
			<text transform="matrix(1 0 0 1 163.009 28.271)" class="st1 st2 st3">c</text>
			<text transform="matrix(1 0 0 1 163.009 28.271)" class="st4 st2 st3">c</text>
			<text transform="matrix(1 0 0 1 175.699 28.271)" class="st1 st2 st3">k</text>
			<text transform="matrix(1 0 0 1 175.699 28.271)" class="st4 st2 st3">k</text>
		</g>
		<g>
			<text transform="matrix(1 0 0 1 51.788 28.271)" class="st5 st2 st3">Sma</text>
			<text transform="matrix(1 0 0 1 51.788 28.271)" class="st5 st2 st3">Sma</text>
			<text transform="matrix(1 0 0 1 105.6841 28.271)" class="st5 st2 st3">r</text>
			<text transform="matrix(1 0 0 1 105.6841 28.271)" class="st5 st2 st3">r</text>
			<text transform="matrix(1 0 0 1 114.1353 28.271)" class="st5 st2 st3">tche</text>
			<text transform="matrix(1 0 0 1 114.1353 28.271)" class="st5 st2 st3">tche</text>
			<text transform="matrix(1 0 0 1 163.009 28.271)" class="st5 st2 st3">c</text>
			<text transform="matrix(1 0 0 1 163.009 28.271)" class="st5 st2 st3">c</text>
			<text transform="matrix(1 0 0 1 175.699 28.271)" class="st5 st2 st3">k</text>
			<text transform="matrix(1 0 0 1 175.699 28.271)" class="st5 st2 st3">k</text>
		</g>
		<path class="st1" d="M25.8,12c-0.4,0-0.8,0.1-1.1,0.3l0,0c-0.3,0.3-0.4,0.4-0.6,0.6l-8.6,8.5c0,0-2.6-2.5-3.4-3.4
			c-0.5-0.7-1.4-1.1-2.3-0.8c-1,0.3-1.6,1.1-1.6,2.1c0.1,0.7,0.4,1.3,0.9,1.7l6.1,6.1c0.2,0.2,0.5,0.2,0.6,0c0,0,0,0,0,0l11.8-11.8
			c0.2-0.3,0.4-0.8,0.4-1.2C28,13,27,12,25.8,12C25.8,12,25.8,12,25.8,12L25.8,12z"/>
		<path class="st6" d="M19.4,7.3c-1.1,1.1-0.9,2.6-2,3.8c-1.4,1.4-2.1,0.5-3.6,1.8l0,0c-0.7,0.9-0.5,2.3,0.4,3
			c0.8,0.6,1.9,0.6,2.6,0l0,0v0c1.1-1,0.3-2,2.1-3.8c1.3-1.3,4-0.5,4-3.1c0-1.2-1-2.1-2.1-2.1C20.2,6.8,19.8,7,19.4,7.3"/>
		<path class="st6" d="M24.5,23c-1.1,1.1-0.9,2.6-2,3.8c-1.5,1.4-2.1,0.5-3.6,1.8l0,0c-0.7,0.9-0.5,2.3,0.4,3c0.8,0.6,1.9,0.6,2.6,0
			l0,0v0c1.1-1,0.3-2.1,2.1-3.8c1.3-1.3,4-0.5,4-3.1c0-1.2-1-2.1-2.1-2.1C25.4,22.6,24.9,22.7,24.5,23"/>
	</g>
</g>
</svg>
